<?xml version="1.0" encoding="UTF-8"?>
<svg id="_图层_1" data-name="图层 1" xmlns="http://www.w3.org/2000/svg" viewBox="0 0 304.91 278.45">
  <defs>
    <style>
      .cls-1 {
        fill: #00478a;
      }

      .cls-2 {
        fill: #007cc4;
      }

      .cls-3 {
        fill: #f39800;
      }
    </style>
  </defs>
  <path class="cls-3" d="M4.18,7.45C-2.42,19.83,.88,52.82,.47,68.5c1.24,12.79,0,21.86,11.55,17.74C46.66,67.26,116.36,24.78,146.89,5.8,156.78-1.62,135.34,.85,127.91,.03H41.71C21.91,.03,9.54-.79,4.59,6.22h0v1.24h-.41Z"/>
  <path class="cls-1" d="M300.73,7.45c6.6,12.37,3.3,45.37,3.71,61.04-1.24,12.79,0,21.86-11.55,17.74-31.76-16.91-101.46-60.63-129.1-76.72C144.82-1.62,164.62,.85,177.41,.03h86.2c19.8,0,32.17-.82,37.12,6.19h0v1.24h0Z"/>
  <path class="cls-2" d="M213.7,275.96c-4.95,2.89-18.97,2.47-39.18,2.47H107.29c-9.49,0-15.26-1.24-17.74-3.71-3.3-3.71-1.24-9.9,0-15.26,11.55-47.84,50.73-209.11,59.81-246.23,3.3-13.2,4.54-8.25,7.42,4.12,7.84,33,17.32,71.77,26.81,110.54,7.42,30.93,15.26,62.69,21.45,88.68,5.36,22.68,10.31,40.42,11.55,49.91,.41,3.71,.41,7.42-2.89,9.49h0Z"/>
</svg>